<svg version="1.1" id="Layer_1" xmlns="http://www.w3.org/2000/svg" xmlns:xlink="http://www.w3.org/1999/xlink" x="0px" y="0px"
	 width="100%" viewBox="0 0 928 928" enable-background="new 0 0 928 928" xml:space="preserve">
<path fill="#000000" opacity="1.000000" stroke="none" 
	d="
M608.382202,756.723755 
	C609.664734,766.562195 610.860718,775.958374 612.221985,785.330444 
	C612.817139,789.428284 610.627747,790.121338 607.291565,790.113770 
	C594.459778,790.084412 581.627808,790.194397 568.795959,790.174683 
	C514.801819,790.091736 460.806763,790.131958 406.814148,789.789673 
	C390.165375,789.684143 373.521942,789.282410 356.876953,789.848145 
	C352.628326,789.992554 352.358154,787.495972 352.896790,784.283325 
	C355.122406,771.009277 357.362000,757.740173 358.923889,744.362183 
	C361.100555,725.717896 363.291443,707.073059 365.747925,688.464294 
	C368.443848,668.041565 371.564331,647.674805 374.243652,627.250061 
	C374.987244,621.581421 376.393677,615.865234 375.488708,610.077454 
	C372.843231,609.390991 371.830322,611.180847 370.645142,612.436340 
	C350.066925,634.236389 329.606140,656.148010 308.931061,677.855530 
	C290.897400,696.789734 272.489349,715.368652 254.553665,734.393921 
	C249.532349,739.720337 244.645035,745.182251 239.370316,750.256653 
	C228.802658,760.423218 216.868866,761.864258 204.254105,754.303833 
	C192.198715,747.078613 182.666428,736.936279 174.572968,725.714905 
	C165.948517,713.757202 167.496506,698.778625 177.800461,688.215759 
	C200.700150,664.740723 223.462830,641.133240 246.673813,617.957642 
	C260.335876,604.316406 273.862061,590.519104 287.190308,576.529663 
	C297.625793,565.576416 308.632446,555.144287 319.138062,544.226685 
	C322.450226,540.784668 322.163788,538.782959 319.038300,535.296814 
	C303.590485,518.066650 288.134857,500.847534 272.174316,484.089447 
	C269.787598,481.583496 269.529663,479.205811 270.804474,475.974213 
	C284.175812,442.077972 297.409210,408.127350 310.680420,374.191620 
	C310.741089,374.036469 310.781830,373.871674 310.857147,373.724274 
	C314.327179,366.935272 313.821167,361.749542 307.518829,355.952698 
	C294.538666,344.013519 282.553406,330.983429 270.307434,318.259155 
	C263.964325,311.668335 256.801056,308.751831 247.466568,310.301147 
	C210.028824,316.514984 181.007507,302.257904 160.275269,271.652954 
	C146.125488,250.765015 143.652206,227.090912 150.019333,202.663574 
	C151.471375,197.092850 152.370621,191.286194 155.383957,186.276947 
	C157.800354,186.152893 158.780273,187.920609 160.013138,189.163300 
	C175.150330,204.421234 190.315338,219.652695 205.309753,235.050125 
	C208.107971,237.923553 210.503830,238.851578 214.467957,237.298492 
	C219.864517,235.184204 225.591766,233.905869 231.192810,232.324234 
	C235.707855,231.049286 238.559570,228.550095 239.576889,223.614243 
	C240.714935,218.092758 242.590698,212.714813 244.295181,207.321732 
	C245.360504,203.951019 244.760971,201.253815 242.222321,198.699432 
	C227.075638,183.458923 212.002151,168.145599 196.921890,152.839188 
	C195.668594,151.567078 193.834213,150.796356 193.152374,148.259811 
	C197.479523,144.990982 202.884445,143.561874 207.966278,142.162659 
	C241.385590,132.961060 271.976013,137.907608 296.885803,163.292282 
	C312.045563,178.741028 320.249207,197.929626 320.305237,220.041000 
	C320.319580,225.706955 320.437378,231.379028 320.225403,237.037704 
	C319.903259,245.637833 322.519135,253.136673 328.314789,259.426697 
	C334.146057,265.755402 340.173615,271.903229 346.669556,278.711334 
	C348.431763,273.927185 347.637726,269.788971 347.573608,265.817780 
	C347.506805,261.678986 349.481995,260.241943 353.142975,259.746887 
	C373.071686,257.052063 392.977325,254.181625 412.922028,251.613449 
	C417.696045,250.998734 419.694855,248.815277 419.289795,244.158493 
	C419.174408,242.832123 419.085144,241.501114 419.051178,240.170502 
	C418.962830,236.709854 419.461945,234.682800 424.127258,235.409119 
	C442.686096,238.298492 461.315704,240.737396 479.928467,243.274536 
	C488.660553,244.464844 497.394470,245.716568 506.166748,246.502914 
	C509.947327,246.841797 511.364990,248.072754 511.413574,251.941086 
	C511.560608,263.645111 511.675720,263.751312 523.138550,265.743500 
	C540.648743,268.786804 558.157288,271.887970 575.854980,273.663208 
	C579.792847,274.058167 580.054260,276.416077 580.278564,279.522430 
	C580.475342,282.246216 578.452637,286.155487 582.346252,287.393890 
	C585.923340,288.531677 587.175537,284.692444 589.185120,282.612671 
	C597.057312,274.465607 605.017517,266.403473 612.886597,258.253448 
	C618.787842,252.141571 625.188171,246.390701 630.297668,239.667023 
	C636.253540,231.829514 641.597778,223.398010 646.179565,214.683792 
	C650.301025,206.845001 647.734924,199.303513 641.584656,193.305756 
	C629.243835,181.270950 614.283875,174.557388 597.257751,172.311264 
	C586.141235,170.844742 574.998962,171.027939 563.855530,171.881042 
	C561.831055,172.036041 560.276062,171.537735 559.106018,169.848557 
	C554.951294,163.850311 550.997925,157.703873 545.578857,152.366791 
	C549.391235,148.434677 553.994873,146.775116 558.145691,144.540588 
	C580.122864,132.709717 603.364929,125.233536 628.551270,124.648483 
	C658.217285,123.959381 683.862854,134.191452 706.636597,152.766281 
	C713.263428,158.171295 718.865601,164.545731 724.828430,170.548279 
	C737.028015,182.829056 748.960083,195.377075 761.706299,207.101059 
	C766.611023,211.612350 768.206848,216.882172 766.804688,223.342484 
	C766.282166,225.749878 766.269165,228.312515 766.338806,230.795517 
	C766.558105,238.616882 773.566833,243.962082 781.151245,242.131165 
	C784.068054,241.427032 786.934082,240.638428 789.986389,240.653397 
	C792.628174,240.666382 794.872986,241.489670 796.861511,243.155396 
	C805.567078,250.447632 812.717896,259.282898 820.572205,267.405396 
	C826.950684,274.001617 826.291321,279.625061 820.622620,287.039551 
	C814.533142,295.004364 807.521729,302.091949 800.572632,309.260376 
	C790.834351,319.306061 781.174988,329.428253 771.430908,339.468231 
	C764.226013,346.891785 757.781128,347.223999 750.114624,340.217682 
	C742.372437,333.142120 734.577698,326.108124 727.469421,318.361420 
	C723.323669,313.843231 720.305847,309.360321 723.241028,302.721161 
	C724.379517,300.146088 723.967102,296.809967 723.966431,293.820618 
	C723.964233,284.321472 715.148193,278.690338 706.607117,283.099396 
	C698.879333,287.088684 692.320435,292.872955 686.044922,298.844971 
	C673.727966,310.566315 662.185486,323.037476 650.804199,335.666595 
	C648.275269,338.472809 647.225891,341.283020 647.231140,345.032288 
	C647.304504,397.360107 647.139465,449.688599 647.365112,502.015472 
	C647.396179,509.223328 645.808289,515.328186 641.602783,521.079407 
	C638.762207,524.963928 636.571899,529.318115 633.955750,533.375183 
	C632.701294,535.320557 632.517761,536.762268 634.329285,538.591858 
	C648.391541,552.794189 662.305298,567.143860 676.395203,581.318420 
	C681.014465,585.965515 686.650269,587.783020 693.307983,586.382019 
	C733.034058,578.022461 770.565491,599.054443 786.983459,632.306091 
	C799.867981,658.401428 798.773804,684.153076 787.726013,710.433228 
	C783.993164,709.993164 782.129822,707.273804 779.978821,705.106262 
	C766.602661,691.627136 753.155090,678.214600 740.013855,664.509033 
	C735.636047,659.943176 731.441162,658.551819 725.552246,661.390137 
	C721.697632,663.247864 717.422485,664.383179 713.220154,665.327820 
	C708.904846,666.297729 706.649170,668.929810 705.499329,672.890381 
	C703.597290,679.441895 701.785522,686.020569 699.794250,692.544617 
	C699.019287,695.083557 699.546753,696.931702 701.417053,698.824768 
	C716.281433,713.870239 731.089417,728.971741 745.869629,744.099976 
	C751.365295,749.724854 750.935120,751.381226 743.352478,753.394653 
	C734.684326,755.696289 726.173950,758.750183 717.138000,759.431396 
	C691.099731,761.394531 668.920654,753.112732 649.823059,735.225159 
	C635.432983,721.746887 627.055725,705.514893 624.228699,686.254211 
	C623.064453,678.321777 623.304443,670.304688 624.305725,662.349304 
	C625.092712,656.096558 625.304626,649.904907 621.199463,644.653503 
	C612.686218,633.763184 602.152832,624.869446 592.468384,615.332947 
	C589.542297,616.770081 590.697021,618.640381 590.925415,620.350037 
	C594.752991,648.998657 598.446411,677.665833 602.428284,706.292969 
	C604.740540,722.917175 606.651428,739.580505 608.382202,756.723755 
M489.612427,755.733887 
	C515.440979,755.786865 541.269470,755.863037 567.098022,755.878723 
	C574.825989,755.883423 575.455322,755.045776 574.478943,747.512512 
	C572.214722,730.041748 569.982727,712.566772 567.765076,695.090027 
	C564.167114,666.735413 560.541626,638.384094 557.068298,610.014221 
	C556.630981,606.442261 555.165894,604.846069 551.617065,604.171997 
	C542.308716,602.403992 533.045349,600.372437 523.819580,598.209290 
	C520.374878,597.401611 516.644226,597.046997 513.664185,594.471741 
	C514.830750,592.907349 516.336121,592.841064 517.818176,592.645020 
	C528.565674,591.223877 539.051147,588.537659 549.425171,585.533813 
	C556.580444,583.462036 563.462463,580.966248 568.232544,574.221436 
	C584.392151,551.372437 598.777344,527.380066 614.144531,504.024017 
	C615.307190,502.256866 615.673767,500.410522 615.668091,498.357635 
	C615.627563,483.693634 615.641235,469.029541 615.596924,454.365570 
	C615.591492,452.576782 615.827271,450.660767 614.084961,449.049103 
	C610.177002,449.923523 607.111206,452.661560 603.923523,454.860596 
	C599.833008,457.682404 596.232971,457.746429 591.850769,455.673706 
	C583.261414,451.611176 574.054077,449.176331 565.096069,446.079376 
	C556.707092,443.179199 548.984802,443.521057 540.935608,446.626984 
	C537.257874,448.046021 533.450256,449.202972 529.338196,447.297913 
	C505.356995,436.187805 479.810486,439.075653 454.626465,439.480042 
	C448.942230,439.571320 443.342529,442.139404 437.500336,445.566589 
	C439.267365,446.269562 440.012695,446.582916 440.769775,446.864838 
	C455.504761,452.352081 468.655640,460.418701 479.550262,471.769287 
	C496.264099,489.182617 506.204376,510.135315 510.954407,533.688782 
	C511.762268,537.694885 510.240631,539.325989 506.338501,539.292419 
	C501.673065,539.252380 497.005615,539.227844 492.341553,539.321411 
	C489.574066,539.376953 488.067963,538.369019 487.562042,535.471863 
	C486.524750,529.531982 484.156464,523.999023 481.767975,518.501404 
	C473.135986,498.632965 459.023956,483.842224 439.813202,474.017578 
	C427.676270,467.810577 414.417999,465.257233 401.102509,462.943848 
	C398.588593,462.507080 396.621918,462.703735 394.488342,463.910736 
	C386.372528,468.501923 378.213928,473.017639 370.056183,477.534241 
	C368.956909,478.142883 367.841736,479.202484 366.407684,477.932953 
	C366.047455,476.084045 366.469849,474.248413 367.417786,472.734009 
	C374.356506,461.649231 378.749725,449.411011 383.694977,437.414368 
	C384.834015,434.651245 384.712372,432.435822 382.824097,430.037659 
	C377.223267,422.924591 373.731110,414.581970 369.534698,406.652924 
	C368.993042,405.629486 368.442749,404.524933 369.629272,403.385742 
	C371.359741,403.228455 372.719238,404.164124 374.035370,405.193909 
	C379.737274,409.655304 386.121857,412.752594 393.007263,414.941223 
	C412.820526,421.239166 431.827637,420.427246 449.137024,407.889954 
	C457.790314,401.622284 463.082367,392.750671 465.464661,382.321167 
	C466.738464,376.744598 465.961456,375.733368 460.196503,374.881592 
	C453.620087,373.909912 447.008423,373.174316 440.409302,372.358673 
	C419.793518,369.810486 399.174377,367.289185 378.560791,364.723236 
	C370.150330,363.676300 361.750488,362.543610 353.346375,361.445557 
	C349.127136,360.894348 346.295898,362.368378 345.025177,366.676178 
	C343.943939,370.341522 342.569519,373.922394 341.271637,377.521484 
	C330.491058,407.416809 319.837952,437.359680 308.759552,467.144348 
	C307.078766,471.663208 307.748779,474.450012 310.732330,477.810303 
	C340.257141,511.063324 371.174438,543.028137 401.173553,575.840210 
	C403.829437,578.745117 406.861359,580.151794 410.635040,580.653076 
	C430.020874,583.228394 449.418243,584.303406 468.872162,581.433411 
	C470.026917,581.263000 471.212067,580.861450 471.915131,582.606567 
	C471.468170,583.132812 471.035706,583.849854 470.420563,584.335327 
	C460.130188,592.456360 448.813812,598.620728 436.300934,602.670593 
	C428.838867,605.085815 421.175598,606.646362 413.629974,608.692566 
	C411.525360,609.263245 409.648254,609.744751 409.267517,612.636292 
	C407.402435,626.800964 405.200317,640.921265 403.333588,655.085754 
	C401.010071,672.716309 398.917053,690.377136 396.688965,708.020386 
	C394.940582,721.865234 393.182922,735.709167 391.334106,749.540771 
	C390.742096,753.969727 392.032410,755.865845 396.917114,755.791260 
	C413.410767,755.539429 429.911346,755.587891 446.407227,755.742981 
	C450.511871,755.781555 452.580688,754.402710 453.039917,750.234924 
	C453.876495,742.642395 454.939240,735.074341 455.939789,727.500305 
	C458.854675,705.434998 461.747070,683.366638 464.724640,661.309753 
	C466.458405,648.466370 468.272919,635.632690 470.234680,622.822815 
	C470.483704,621.196655 469.983124,618.240173 473.202759,618.620850 
	C475.866577,618.935791 475.256348,621.253906 475.318115,622.973694 
	C476.250763,648.931702 477.206604,674.888977 478.038879,700.850281 
	C478.567261,717.331604 478.970428,733.817871 479.269714,750.304871 
	C479.339203,754.133301 480.890717,755.858154 484.656494,755.731384 
	C485.987946,755.686523 487.322388,755.731323 489.612427,755.733887 
M553.818420,315.505310 
	C553.846191,312.674896 553.858765,309.844208 553.904724,307.014099 
	C554.022888,299.729980 553.811890,299.563049 546.804260,298.372498 
	C537.638550,296.815369 528.491333,295.147095 519.346802,293.468445 
	C511.893280,292.100220 511.356903,292.484467 511.347595,300.089355 
	C511.306458,333.723633 511.271698,367.357910 511.265137,400.992188 
	C511.263000,411.953979 510.787109,409.703552 519.322876,413.066681 
	C520.864746,413.674225 522.459717,414.304749 523.793335,415.256531 
	C530.298157,419.898773 536.739197,420.473724 543.365417,415.487823 
	C544.529053,414.612183 546.031677,414.093079 547.455688,413.674438 
	C552.140747,412.297333 553.789001,409.427063 553.760010,404.416962 
	C553.590515,375.113342 553.757690,345.807770 553.818420,315.505310 
M607.900269,423.367340 
	C609.834656,422.400238 611.766174,421.427338 613.704102,420.467316 
	C616.523254,419.070740 617.705261,416.924255 617.695374,413.668823 
	C617.614563,387.030548 617.624329,360.391724 617.732788,333.753571 
	C617.746094,330.482422 616.575317,328.885681 613.388916,328.283051 
	C604.060913,326.518829 595.214233,323.034180 586.117737,320.435272 
	C580.533875,318.839966 579.315186,319.655731 579.118774,325.574036 
	C578.152405,354.696686 578.365417,383.830963 578.244629,412.962280 
	C578.234985,415.287170 578.712341,417.354218 580.466431,418.791901 
	C585.139160,422.621735 590.614990,425.307556 596.157593,427.318237 
	C599.975891,428.703400 603.590881,425.217438 607.900269,423.367340 
M460.184509,269.407196 
	C456.395020,268.911438 452.592346,268.498779 448.819214,267.899994 
	C443.477234,267.052246 442.869476,267.660309 442.916901,273.213989 
	C443.107330,295.531403 443.592377,317.859100 442.458282,340.156525 
	C442.229889,344.647247 443.745544,346.089661 447.698151,346.570496 
	C458.751770,347.915222 469.823334,349.177826 480.816101,350.924286 
	C484.984833,351.586609 485.892578,350.434265 486.087921,346.474091 
	C487.196686,323.994568 486.223480,301.503662 486.762665,279.028961 
	C486.875458,274.328430 484.810577,272.906067 480.789032,272.382385 
	C474.200348,271.524323 467.638245,270.462433 460.184509,269.407196 
M398.638367,281.347626 
	C392.229523,282.323364 385.830475,283.371002 379.407806,284.245178 
	C376.092896,284.696320 375.013000,286.441467 375.053223,289.675262 
	C375.229340,303.839355 375.330048,318.006134 375.245056,332.170654 
	C375.222473,335.936188 376.505188,337.431946 380.331207,337.839233 
	C390.575409,338.929779 400.811768,340.217041 410.974731,341.890778 
	C415.439362,342.626038 416.846985,341.676056 416.815125,337.010773 
	C416.694489,319.347260 416.958344,301.681244 417.029572,284.015991 
	C417.036591,282.273804 417.566498,280.309509 415.509583,278.733582 
	C410.316284,279.563568 404.918091,280.426300 398.638367,281.347626 
M284.240906,215.510773 
	C286.486511,211.772079 286.122101,207.902283 284.983246,203.915543 
	C284.169556,201.067200 283.399994,198.097610 286.827820,195.481613 
	C290.602020,200.789062 292.369720,206.498291 293.277985,212.618134 
	C295.051727,224.569305 293.721313,236.580750 294.106079,248.558853 
	C294.427429,258.562256 298.060669,267.055298 304.793854,274.218658 
	C314.149078,284.171570 323.709656,293.931396 333.178345,303.777679 
	C335.085907,305.761292 336.964417,307.769226 338.286224,310.879486 
	C335.720673,310.879486 333.862183,310.879486 331.854919,310.879486 
	C333.091309,312.462616 334.102112,313.754272 335.110046,315.048187 
	C336.129242,316.356506 337.090057,318.035339 339.070435,317.403534 
	C341.373627,316.668793 339.295166,314.482666 340.084869,313.124054 
	C341.971405,313.821777 342.503998,316.669525 345.435272,315.886017 
	C346.468689,310.843536 346.691833,306.307373 342.067352,302.134125 
	C331.304840,292.421722 321.289734,281.924438 311.382629,271.335754 
	C308.277740,268.017273 305.899811,264.270813 303.791931,260.254059 
	C298.722137,250.593094 299.513062,240.251373 299.879761,229.929169 
	C300.283844,218.553787 299.916626,207.362885 295.126434,196.645355 
	C285.052460,174.105713 267.624512,161.840988 243.405670,158.717377 
	C241.710815,158.498779 240.063095,158.466309 238.825089,160.883072 
	C245.703796,165.166153 254.113403,164.933136 261.136353,168.485153 
	C268.363983,172.140701 275.195343,176.184891 278.799591,183.916809 
	C274.797607,181.538986 271.089966,178.795502 267.280670,176.201294 
	C265.712830,175.133575 263.891479,173.300400 261.997681,175.324188 
	C260.379639,177.053268 260.397552,179.634323 261.598755,181.426254 
	C264.282074,185.429138 265.656128,190.224548 269.143555,193.717285 
	C271.860443,196.438263 272.393433,199.680130 271.748657,203.394989 
	C270.738007,209.217773 268.294952,214.485748 266.052856,219.868271 
	C265.228882,221.846375 263.311951,224.225723 265.416748,226.347885 
	C267.463928,228.411972 270.334381,228.294785 272.979828,227.633865 
	C276.319397,226.799515 279.072937,225.118774 280.594910,221.745102 
	C281.475250,219.793686 282.760529,218.024963 284.240906,215.510773 
M643.363831,146.270172 
	C632.715820,144.836166 622.121094,144.341293 610.987488,147.833557 
	C612.146118,148.354156 612.564270,148.688492 612.998779,148.711258 
	C614.659302,148.798309 616.325012,148.796432 617.988892,148.807602 
	C640.155701,148.956284 661.033264,153.906876 679.221375,166.980331 
	C701.260986,182.822220 718.641602,203.699112 737.811157,222.636017 
	C739.532104,224.335999 739.547729,226.337646 739.378784,228.607666 
	C738.618713,238.821030 741.101379,248.352570 747.712463,256.112976 
	C754.964539,264.625824 763.205444,271.970947 776.016357,268.397217 
	C779.801697,267.341278 781.902466,269.546417 783.167908,272.890533 
	C780.038086,272.131989 777.247437,271.243744 774.604858,273.779022 
	C772.196167,276.089905 770.023743,278.616974 771.359192,282.049225 
	C773.148438,286.648041 775.962280,290.693909 781.196472,291.830292 
	C784.075684,292.455353 787.174866,292.892029 789.598206,290.241821 
	C792.744934,286.800507 795.911499,283.375244 799.152344,280.023071 
	C800.934998,278.179169 800.789734,276.664551 798.960876,274.949066 
	C795.439026,271.645630 791.987122,268.265411 788.571960,264.851257 
	C786.480957,262.760803 784.269897,261.962891 781.379822,263.217010 
	C778.053833,264.660278 774.602417,264.464264 771.088440,263.713867 
	C754.134827,260.093506 743.136780,244.680176 745.483521,227.504593 
	C746.042969,223.410431 745.204773,220.216858 742.130371,217.180603 
	C727.439636,202.671570 713.153442,187.747955 698.306519,173.403320 
	C683.192078,158.800247 665.104370,149.681580 643.363831,146.270172 
M221.400879,680.883606 
	C222.058945,680.131714 222.662933,679.323120 223.382996,678.636230 
	C242.407944,660.487305 261.420074,642.322937 279.550598,623.269958 
	C292.631866,609.523132 306.532593,596.569641 319.091309,582.316528 
	C321.521851,579.557983 323.524597,576.752808 323.124084,572.782471 
	C320.035675,573.122070 317.996094,574.542419 316.040741,576.525391 
	C285.170166,607.833313 253.957535,638.806824 223.724197,670.737183 
	C214.797302,680.165100 205.184845,688.939209 196.840179,698.918884 
	C194.989914,701.131714 192.658203,703.317993 194.489929,705.516541 
	C203.350998,697.415405 212.119156,689.399292 221.400879,680.883606 
M629.421631,563.078857 
	C626.731262,560.657532 624.289612,557.899963 620.771667,556.430786 
	C616.051392,560.359009 619.810486,563.128357 622.054993,565.558350 
	C634.148804,578.651184 646.808289,591.184814 659.878418,603.311401 
	C667.793030,610.654541 677.215515,613.671631 687.748718,613.534912 
	C693.066345,613.465942 698.405945,613.063477 703.684265,612.402283 
	C716.562073,610.789307 728.909851,612.398804 740.785217,617.690369 
	C743.745544,619.009460 746.821838,620.068481 750.716553,621.586853 
	C747.760010,617.503357 745.249390,615.790833 741.499329,613.404419 
	C726.992859,604.173035 711.056702,604.827148 695.058411,606.706116 
	C681.979797,608.242249 670.583130,605.253662 661.239929,595.819885 
	C650.696228,585.173950 640.323425,574.358704 629.421631,563.078857 
M608.538208,297.429688 
	C611.520935,298.280273 613.660706,296.884735 615.587158,294.831757 
	C619.454834,290.710022 623.314758,286.580139 627.236267,282.509888 
	C634.849304,274.608063 642.421570,266.668060 649.406006,258.197968 
	C650.698059,256.631012 652.655518,254.893967 649.929321,252.758743 
	C647.411011,250.786362 646.003845,252.621429 644.516174,254.211975 
	C637.247803,261.982880 629.999268,269.772400 622.729065,277.541626 
	C617.843933,282.762115 612.861267,287.894714 608.107910,293.232056 
	C607.320007,294.116760 604.338684,295.778320 608.538208,297.429688 
z"/>
<path fill="#000000" opacity="1.000000" stroke="none" 
	d="
M505.921753,705.598267 
	C503.453247,677.835144 501.120880,650.500549 498.542419,623.189270 
	C498.165894,619.201172 499.139832,617.856812 503.172150,617.819580 
	C513.384827,617.725464 513.811951,617.740967 513.198242,627.839783 
	C511.553253,654.911377 509.665894,681.967957 509.095795,709.093445 
	C509.075958,710.038879 508.760223,710.978088 508.478882,712.468689 
	C505.949554,710.570618 506.809235,707.961060 505.921753,705.598267 
z"/>
</svg>
