<svg xmlns="http://www.w3.org/2000/svg" viewBox="0 0 96 96" role="img" aria-label="?????">
  <defs>
    <linearGradient id="g" x1="0" y1="0" x2="1" y2="1">
      <stop offset="0" stop-color="#3b82f6"/>
      <stop offset="1" stop-color="#1d4ed8"/>
    </linearGradient>
    <radialGradient id="h" cx="30%" cy="25%" r="80%">
      <stop offset="0" stop-color="#ffffff" stop-opacity="0.28"/>
      <stop offset="1" stop-color="#ffffff" stop-opacity="0"/>
    </radialGradient>
    <filter id="s" x="-20%" y="-20%" width="140%" height="140%">
      <feDropShadow dx="0" dy="6" stdDeviation="6" flood-color="#000000" flood-opacity="0.35"/>
    </filter>
  </defs>

  <!-- Rounded "squircle" background (transparent outside) -->
  <rect x="6" y="6" width="84" height="84" rx="26" fill="url(#g)" filter="url(#s)"/>
  <rect x="6" y="6" width="84" height="84" rx="26" fill="url(#h)"/>
  <rect x="6" y="6" width="84" height="84" rx="26" fill="none" stroke="#ffffff" stroke-opacity="0.14"/>

  <!-- Simple mark: crossed tools (white) -->
  <path fill="#fff" fill-opacity="0.95" d="M34.6 63.7c-1.1 1.1-2.9 1.1-4 0l-3.3-3.3c-1.1-1.1-1.1-2.9 0-4l8.8-8.8 7.3 7.3-8.8 8.8z"/>
  <path fill="#fff" fill-opacity="0.95" d="M66.7 35.6l-4.1 4.1-6.6-6.6 4.1-4.1c.8-.8 2-.9 2.9-.3l2.1 1.4 1.4 2.1c.6.9.5 2.1-.3 2.9z"/>
  <path fill="#fff" fill-opacity="0.95" d="M44.7 49.5l-9.6-9.6 2.9-2.9c1.1-1.1 2.9-1.1 4 0l5.6 5.6c1.1 1.1 1.1 2.9 0 4l-2.9 2.9z"/>

  <path fill="#fff" fill-opacity="0.95" d="M61.4 66.4c1.1 1.1 2.9 1.1 4 0l3.3-3.3c1.1-1.1 1.1-2.9 0-4l-8.8-8.8-7.3 7.3 8.8 8.8z"/>
  <path fill="#fff" fill-opacity="0.95" d="M29.3 38.3l4.1 4.1 6.6-6.6-4.1-4.1c-.8-.8-2-.9-2.9-.3l-2.1 1.4-1.4 2.1c-.6.9-.5 2.1.3 2.9z"/>
  <path fill="#fff" fill-opacity="0.95" d="M51.3 52.2l9.6-9.6-2.9-2.9c-1.1-1.1-2.9-1.1-4 0l-5.6 5.6c-1.1 1.1-1.1 2.9 0 4l2.9 2.9z"/>
</svg>
